name rise49.25peak52.1432fall72.8391.mot
datacolumns 19
datarows 17
range 6.27331000000000 6.29997100000000
endheader
time	ground_force1_vx	ground_force1_vy	ground_force1_vz	ground_force1_px	ground_force1_py	ground_force1_pz	ground_force2_vx	ground_force2_vy	ground_force2_vz	ground_force2_px	ground_force2_py	ground_force2_pz	ground_torque1_x	ground_torque1_y	ground_torque1_z	ground_torque2_x	ground_torque2_y	ground_torque2_z	
6.27331000000000	-5.88485900000000	41.08709500000000	-8.56213300000000	0.31739400000000	0.00000000000000	0.08885200000000	-57.01186900000000	780.51564199999996	-48.11175600000000	0.12068900000000	0.00000000000000	-0.08305800000000	0.00000000000000	-5.36864000000000	0.00000000000000	0.00000000000000	-19.57023400000000	0.00000000000000	
6.27497100000000	-6.37881600000000	48.03967800000000	-9.62174100000000	0.32218700000000	0.00000000000000	0.08957600000000	-57.59531600000000	778.13334299999997	-47.66262700000000	0.11998200000000	0.00000000000000	-0.08292300000000	0.00000000000000	-6.11084500000000	0.00000000000000	0.00000000000000	-19.50365500000000	0.00000000000000	
6.27664300000000	-6.74023400000000	55.04985500000000	-10.58244100000000	0.32652000000000	0.00000000000000	0.09024300000000	-58.19446200000000	775.64362600000004	-47.19624900000000	0.11927500000000	0.00000000000000	-0.08278300000000	0.00000000000000	-6.80571000000000	0.00000000000000	0.00000000000000	-19.43861000000000	0.00000000000000	
6.27831000000000	-6.95254000000000	62.02529400000000	-11.42163500000000	0.33046500000000	0.00000000000000	0.09086000000000	-58.80891800000000	773.04335600000002	-46.71247800000000	0.11856700000000	0.00000000000000	-0.08263900000000	0.00000000000000	-7.43762600000000	0.00000000000000	0.00000000000000	-19.37507600000000	0.00000000000000	
6.27997400000000	-7.00624100000000	68.89709800000000	-12.12441100000000	0.33407700000000	0.00000000000000	0.09143300000000	-59.43818100000000	770.32931199999996	-46.21117900000000	0.11786000000000	0.00000000000000	-0.08249200000000	0.00000000000000	-7.99564800000000	0.00000000000000	0.00000000000000	-19.31301100000000	0.00000000000000	
6.28164000000000	-6.89876000000000	75.62183100000000	-12.68363500000000	0.33740500000000	0.00000000000000	0.09197000000000	-60.08163100000000	767.49819700000000	-45.69223000000000	0.11715300000000	0.00000000000000	-0.08234000000000	0.00000000000000	-8.47367800000000	0.00000000000000	0.00000000000000	-19.25235300000000	0.00000000000000	
6.28331000000000	-6.63373300000000	82.18111399999999	-13.09938900000000	0.34048700000000	0.00000000000000	0.09247300000000	-60.73853000000000	764.54664600000001	-45.15552500000000	0.11644700000000	0.00000000000000	-0.08218500000000	0.00000000000000	-8.87022600000000	0.00000000000000	0.00000000000000	-19.19301800000000	0.00000000000000	
6.28497200000000	-6.21992200000000	88.57922600000001	-13.37791900000000	0.34335400000000	0.00000000000000	0.09294700000000	-61.40802400000000	761.47123499999998	-44.60097400000000	0.11574300000000	0.00000000000000	-0.08202500000000	0.00000000000000	-9.18783100000000	0.00000000000000	0.00000000000000	-19.13490400000000	0.00000000000000	
6.28664400000000	-5.66989500000000	94.83925499999999	-13.53024900000000	0.34603300000000	0.00000000000000	0.09339400000000	-62.08913600000000	758.26849300000003	-44.02850600000000	0.11504000000000	0.00000000000000	-0.08186200000000	0.00000000000000	-9.43224200000000	0.00000000000000	0.00000000000000	-19.07788600000000	0.00000000000000	
6.28830800000000	-4.99862500000000	100.99836800000000	-13.57066000000000	0.34854700000000	0.00000000000000	0.09381800000000	-62.78077100000000	754.93491400000005	-43.43807500000000	0.11434100000000	0.00000000000000	-0.08169400000000	0.00000000000000	-9.61149100000000	0.00000000000000	0.00000000000000	-19.02182000000000	0.00000000000000	
6.28997200000000	-4.22213200000000	107.10275300000001	-13.51514900000000	0.35091400000000	0.00000000000000	0.09422000000000	-63.48171600000000	751.46697200000006	-42.82965900000000	0.11364500000000	0.00000000000000	-0.08152300000000	0.00000000000000	-9.73492400000000	0.00000000000000	0.00000000000000	-18.96654100000000	0.00000000000000	
6.29164600000000	-3.35627900000000	113.20268900000001	-13.38002900000000	0.35315000000000	0.00000000000000	0.09460300000000	-64.19064000000000	747.86112900000001	-42.20326100000000	0.11295200000000	0.00000000000000	-0.08134700000000	0.00000000000000	-9.81230400000000	0.00000000000000	0.00000000000000	-18.91186700000000	0.00000000000000	
6.29330800000000	-2.41578600000000	119.34812700000001	-13.18073400000000	0.35526800000000	0.00000000000000	0.09496900000000	-64.90609499999999	744.11385499999994	-41.55891900000000	0.11226400000000	0.00000000000000	-0.08116700000000	0.00000000000000	-9.85302500000000	0.00000000000000	0.00000000000000	-18.85759300000000	0.00000000000000	
6.29497200000000	-1.41350300000000	125.58503600000000	-12.93090700000000	0.35728000000000	0.00000000000000	0.09531800000000	-65.62652100000000	740.22163699999999	-40.89670100000000	0.11158100000000	0.00000000000000	-0.08098400000000	0.00000000000000	-9.86549800000000	0.00000000000000	0.00000000000000	-18.80349800000000	0.00000000000000	
6.29664300000000	-0.35995400000000	131.95266300000000	-12.64177200000000	0.35919600000000	0.00000000000000	0.09565200000000	-66.35024700000000	736.18100100000004	-40.21670900000000	0.11090300000000	0.00000000000000	-0.08079600000000	0.00000000000000	-9.85671000000000	0.00000000000000	0.00000000000000	-18.74934400000000	0.00000000000000	
6.29831300000000	0.73686200000000	138.48175300000000	-12.32180400000000	0.36102400000000	0.00000000000000	0.09597300000000	-67.07549299999999	731.98852499999998	-39.51908600000000	0.11023200000000	0.00000000000000	-0.08060500000000	0.00000000000000	-9.83197600000000	0.00000000000000	0.00000000000000	-18.69487500000000	0.00000000000000	
6.29997100000000	1.87144100000000	145.19369599999999	-11.97666600000000	0.36277000000000	0.00000000000000	0.09628100000000	-67.80037700000000	727.64085699999998	-38.80401300000000	0.10956800000000	0.00000000000000	-0.08040900000000	0.00000000000000	-9.79485500000000	0.00000000000000	0.00000000000000	-18.63981800000000	0.00000000000000	
